inDegrees=no
num_controls=7
num_derivatives=13
num_iterations=108
num_multipliers=7
num_parameters=0
num_slacks=7
num_states=26
objective=4.615904
objective_accelerations=0.636791
objective_balance=0.030202
objective_effort=0.482120
objective_height=3.403779
objective_ligament=0.063012
solver_duration=1169.921420
status=Solve_Succeeded
success=true
DataType=double
version=3
OpenSimVersion=4.4-2022-07-23-0e9fedc
endheader
time	/jointset/ground_pelvis/pelvis_tilt/value	/jointset/ground_pelvis/pelvis_tx/value	/jointset/ground_pelvis/pelvis_ty/value	/jointset/hip_l/hip_flexion_l/value	/jointset/hip_l/hip_adduction_l/value	/jointset/hip_l/hip_rotation_l/value	/jointset/back/lumbar_extension/value	/jointset/patellofemoral_l/patellar_flexion_l/value	/jointset/knee_l/knee_flexion_l/value	/jointset/knee_l/knee_adduction_l/value	/jointset/knee_l/knee_rotation_l/value	/jointset/ankle_l/ankle_angle_l/value	/jointset/subtalar_l/subtalar_angle_l/value	/jointset/ground_pelvis/pelvis_tilt/speed	/jointset/ground_pelvis/pelvis_tx/speed	/jointset/ground_pelvis/pelvis_ty/speed	/jointset/hip_l/hip_flexion_l/speed	/jointset/hip_l/hip_adduction_l/speed	/jointset/hip_l/hip_rotation_l/speed	/jointset/back/lumbar_extension/speed	/jointset/patellofemoral_l/patellar_flexion_l/speed	/jointset/knee_l/knee_flexion_l/speed	/jointset/knee_l/knee_adduction_l/speed	/jointset/knee_l/knee_rotation_l/speed	/jointset/ankle_l/ankle_angle_l/speed	/jointset/subtalar_l/subtalar_angle_l/speed	/forceset/tau_hip_flexion_l	/forceset/tau_hip_adduction_l	/forceset/tau_hip_rotation_l	/forceset/tau_knee_flexion_l	/forceset/tau_ankle_angle_l	/forceset/tau_subtalar_angle_l	/forceset/tau_lumbar_extension	lambda_cid13_p0	lambda_cid13_p1	lambda_cid13_p2	lambda_cid13_p3	lambda_cid13_p4	lambda_cid13_p5	lambda_cid14_p0	/jointset/ground_pelvis/pelvis_tilt/accel	/jointset/ground_pelvis/pelvis_tx/accel	/jointset/ground_pelvis/pelvis_ty/accel	/jointset/hip_l/hip_flexion_l/accel	/jointset/hip_l/hip_adduction_l/accel	/jointset/hip_l/hip_rotation_l/accel	/jointset/back/lumbar_extension/accel	/jointset/patellofemoral_l/patellar_flexion_l/accel	/jointset/knee_l/knee_flexion_l/accel	/jointset/knee_l/knee_adduction_l/accel	/jointset/knee_l/knee_rotation_l/accel	/jointset/ankle_l/ankle_angle_l/accel	/jointset/subtalar_l/subtalar_angle_l/accel	gamma_cid13_p0	gamma_cid13_p1	gamma_cid13_p2	gamma_cid13_p3	gamma_cid13_p4	gamma_cid13_p5	gamma_cid14_p0
0	-0.1561043226122477	0.05706192961976737	0.8978644147920884	0.3774920279260975	-0.2610497951279393	-0.239881930926376	-0.0126506700172305	0.03223623128434248	0.03223623128433527	-0.1745324826511667	0.1429567791267471	-0.04231376238535053	-0.01156090327193993	0	0	0	0	0	0	0	0	0	0	0	0	0	0.1371021551724615	-0.06738872470524844	-0.04154615599315517	-0.2765547046919326	0.2713073082523784	-0.03391153178870323	-0.08799028338460914	46.4459427424472	1.918841623923878	4.633454105174173	-0.669586133180471	-576.553012138509	-69.70896470919838	-38.12479805041587	-2.942767627924987	-2.364644076124458	-1.215365563261954	15.43353823578034	-0.3880154715752314	4.161334643767273	-7.313636186284634	15.88672411172927	15.88672411173065	3.030102951275931	1.182686835588889	4.328946890420966	0.5513491578063336	-9.796867381569525e-09	4.58204604189233e-07	-2.162033296682426e-08	2.129764525572532e-08	1.984885888128334e-07	7.44669484445325e-08	4.223755439705263e-08
0.01	-0.1562438092601704	0.05694487724217203	0.89780515806405	0.3782449457867365	-0.2610687057215032	-0.2396732153496103	-0.01301723013743407	0.03301437927107947	0.03301437927105654	-0.1743833275782476	0.143009963218727	-0.04210261227760843	-0.01153407591880057	-0.02770218085581829	-0.02332873196873163	-0.01181845560819409	0.1498491251265434	-0.003731924577153201	0.04150756595638924	-0.07280887659614059	0.1548938811887263	0.1548938811887341	0.02972063837575709	0.0105919748061278	0.04199522235423504	0.005361232777865752	0.1292657797118489	-0.07567280873577735	-0.03985983410305437	-0.2666051971296182	0.2551947718273235	-0.01982647878707497	-0.08176124209536258	41.74168474695079	-3.168064658186259	5.208513585654161	1.916046545105155	-577.8657656339425	-79.34629494888256	-38.14809080420624	-2.654679378995476	-2.304721966150507	-1.160112362010821	14.65042743087499	-0.3583311836793606	4.110158941885967	-7.189041278741668	15.18035425121837	15.1803542512184	2.926564864313145	0.990759344039862	4.099594239408423	0.5278053735713566	-4.20947029237466e-08	5.39023792305156e-07	7.157489604771414e-08	7.426673119248218e-08	-4.091108901078002e-08	5.064249288587723e-08	4.46910559409554e-08
0.02	-0.1566544649295888	0.05659699070310765	0.8976287114194476	0.3804743204546084	-0.2611234456074185	-0.2390564858392299	-0.0140967846000915	0.03531939289545917	0.03531939289545846	-0.1739402620047549	0.1431677283669678	-0.04147855308002629	-0.01145377723072387	-0.05423380429498988	-0.0461668322938099	-0.02343798331280198	0.2952913614444216	-0.007165858470085201	0.08160278672522404	-0.1425988684907363	0.3053731275284143	0.3053731275284127	0.05878210009501078	0.02091621124886239	0.08258181796780897	0.01069426698751004	0.1214294042515265	-0.08395689276627255	-0.03817351221280273	-0.2566556895671627	0.2390822354023313	-0.005741425785401021	-0.07553220080593494	37.17338579320439	-8.273046956090777	5.779914275795724	4.225358738199385	-577.1523156569225	-88.76966467909536	-38.21673587333392	-2.708656144595258	-2.266517747394136	-1.175579982544734	14.55216047404728	-0.3284173347311551	3.878865606256336	-6.709859245975368	15.00379714192166	15.00379714191958	2.898267619974951	1.129139162910301	4.04722154228828	0.5457094441617716	-7.439253846592367e-08	6.19842980421079e-07	1.647701250622525e-07	1.272358171292391e-07	-2.803107668343935e-07	2.681803732722196e-08	4.714455748485817e-08
0.03	-0.1573253988243457	0.05602423115565019	0.8973365644379606	0.3841361043465706	-0.2612108263475972	-0.2380463608213157	-0.01585805752048294	0.03910776720890714	0.0391077672089074	-0.1732099442741254	0.1434276101185083	-0.04045416061184	-0.01131977847063105	-0.07978456239801335	-0.06819507401310276	-0.03499696733010966	0.4362397372486501	-0.01025575912412885	0.1201922857256493	-0.2091011861887257	0.4515746850950835	0.4515746850950795	0.08713282675581671	0.03097215632754704	0.1221953318122026	0.01613225612927358	0.1162220561170087	-0.07897013738883098	-0.03761223806434618	-0.2540550844620497	0.2381230342489866	-0.008305764836307858	-0.07081218698365087	36.84755270812142	-7.183961500525633	5.699556047351105	3.218903293448656	-576.7042563899055	-85.65846773344344	-38.32795751612072	-2.453023366196522	-2.142451246269	-1.146947792605449	13.74231792816769	-0.291213564138478	3.81449956192902	-6.537238620997059	14.31926811545854	14.31926811545959	2.781305516569274	0.9306352617709138	3.903222866626567	0.5467431295845389	-9.804011644696389e-08	5.459304636025613e-07	2.339673243463628e-07	1.605755433404551e-07	-4.697645516427925e-07	-2.466521859813502e-08	3.635248746541576e-08
0.04	-0.1582467878447603	0.05523689441858452	0.8969286495800447	0.389182600355457	-0.2613274935209912	-0.2366572393103845	-0.01826771773571767	0.04433634370830098	0.0443363437082997	-0.1722005532113332	0.1437854139371094	-0.03903667169298614	-0.01113061992304067	-0.1043248294225776	-0.08908227021545578	-0.04659155859861411	0.5722337848351776	-0.01302314511406525	0.1574020853258077	-0.2722763274581114	0.5934135647185081	0.5934135647185123	0.1145967665140448	0.04050062466316767	0.1612011081010543	0.02172622448706434	0.111014707982306	-0.07398338201144118	-0.03705096391598521	-0.251454479357049	0.2371638330955854	-0.01087010388727672	-0.06609217316146321	36.64326914675531	-6.106607693785835	5.610161464309744	1.95605961559675	-574.456441116158	-82.34123805320189	-38.47815678393778	-2.506557928903051	-2.038308644006508	-1.182701432784097	13.5612948305071	-0.2639144019097729	3.602925726202916	-6.044423960254353	14.1312615532728	14.13126155327281	2.720910239459297	1.023643814297548	3.925674031179452	0.5769052873670624	-1.215093386020013e-07	4.688276023524058e-07	3.026697188937633e-07	1.935105404851652e-07	-6.581885242240738e-07	-7.671875906713535e-08	2.528731287765694e-08
0.05	-0.1594091611471059	0.05424599577864783	0.8964040650044417	0.3955660754255753	-0.2614700323033206	-0.234904333264837	-0.0212922874251631	0.05096257011885881	0.05096257011884757	-0.1709209211327534	0.1442371320140472	-0.03723241244690639	-0.0108846305240495	-0.1279730710052495	-0.10894232926918	-0.05837068515738358	0.7036820658451257	-0.0154122005666845	0.1929316861966714	-0.3321358105406247	0.7311030026434587	0.731103002643453	0.1411807239049526	0.04973158120196582	0.1994933558474589	0.02750062289294846	0.1045510723552989	-0.07214069872182803	-0.03609520604134522	-0.2471266627172179	0.2316811897241914	-0.00873447440350285	-0.06067168619324288	35.14849423178703	-6.759407309094784	5.699407936351751	1.913083705228498	-572.1952316620469	-82.3515480869175	-38.66290500828988	-2.267433626941098	-1.936546293257425	-1.182450723077732	12.81971561673211	-0.2156415444191072	3.4908290211643	-5.881440497890008	13.47847273174345	13.478472731742	2.604911919703769	0.8560875459696164	3.757398214540598	0.5819449529564685	-1.307785170583709e-07	3.535663640297192e-07	3.379557018685885e-07	2.044507227347634e-07	-7.525585386566165e-07	-1.192472912186963e-07	1.302621035188028e-08
0.06	-0.1608027121360969	0.05306115819673255	0.8957603026721205	0.4032406574818788	-0.2616343097256703	-0.2328035608598535	-0.02490039794856592	0.05894382847259123	0.05894382847258992	-0.1693798947941093	0.1447778128508377	-0.0350499511097279	-0.01058004957384836	-0.1505603667475316	-0.1278700586111732	-0.07042710994226013	0.8304551820748129	-0.01737087311855628	0.2269753572129815	-0.3889844942486914	0.8644199533538972	0.8644199533538814	0.1668756185277487	0.05829317663271142	0.2368415263206423	0.03344453472912288	0.09808743672832382	-0.07029801543220705	-0.03513944816667176	-0.2427988460773653	0.2261985463528107	-0.006598844919718775	-0.05525119922501178	33.75809826426359	-7.424303030586684	5.783526629385466	1.640481613767489	-568.3982014135681	-82.18541638424314	-38.87725862671983	-2.294368760824765	-1.851842701660615	-1.238161078005521	12.62626187445495	-0.17783782176032	3.305739755292142	-5.442264085364791	13.25676411037039	13.25676411037038	2.54309768583691	0.8897715926870846	3.736858576534833	0.6108079734249945	-1.394497989379545e-07	2.366984571987154e-07	3.718346780403579e-07	2.144648075150939e-07	-8.429683864302649e-07	-1.613747703884703e-07	7.147529655555053e-10
0.07000000000000001	-0.1624176521407518	0.05169179613351908	0.8949941677418519	0.4121610749791979	-0.2618159669110684	-0.2303707436220301	-0.02906119388852972	0.06823760565404503	0.06823760565404283	-0.1675863878015243	0.1454017810869845	-0.03249827543122243	-0.01021502470785545	-0.172254667642306	-0.1458328103068121	-0.0828718611300049	0.9528479182919968	-0.01888101701325045	0.2593250581200479	-0.4426780750007553	0.9936119983200176	0.993611998320034	0.1916688301332055	0.06637921970605994	0.2733460092873529	0.03959842171080687	0.09169086751651234	-0.06754386441438547	-0.03431184146012325	-0.2397173599876525	0.2223784835232026	-0.00542817351519229	-0.04985101051647468	32.84386751529971	-7.756058514235015	5.817464421447551	1.076695687846099	-564.9448142607812	-81.28547073325791	-39.11558075567171	-2.081000393274209	-1.743016831249655	-1.258599581517471	11.92871725293033	-0.1257410065136317	3.160076742944952	-5.258412257878859	12.64190200348523	12.6419020034901	2.423970410517228	0.7497844191764488	3.58510565772152	0.6232985610852335	-1.411502676959378e-07	-3.450052992825579e-09	4.068574946465974e-07	2.027868852904439e-07	-8.763298747996337e-07	-2.415768687619988e-07	-2.437993447108157e-08
